<?xml version="1.0" encoding="UTF-8"?>
<svg xmlns="http://www.w3.org/2000/svg" id="Layer_1" version="1.1" viewBox="0 0 340 76">
  <defs>
    <style>
      .st0 {
        fill: #111921;
      }
    </style>
  </defs>
  <g>
    <path class="st0" d="M13.1,52.4c-6.6,0-11.2-2.4-13.7-7.2l6.8-4c1.3,2.5,3.7,3.8,7.1,3.8s3.8-1.1,3.8-2.3-1-2.2-5-3.1c-7.5-1.6-11.2-5.1-11.2-10.2s1.2-5.3,3.5-7.1c2.4-1.9,5.2-2.8,8.5-2.8,5.8,0,10.1,2.5,12.1,6.4l-6.7,3.9c-1.2-2-3.1-3-5.7-3s-3.3,1.1-3.3,2.3,1.4,2.3,4.1,2.9c8,1.6,12.1,4.8,12.1,10.2s-4.8,10.2-12.5,10.2h.1Z"></path>
    <path class="st0" d="M51.4,51.6c-1.4.4-2.8.6-4.3.6-8.2,0-12.5-4.5-12.5-11.8v-12.1h-5.7v-8h5.8v-9.8h9.1v9.8h7.8v8h-7.8v11c0,3.6,1.9,5,5.5,5s1.5,0,2.1-.2v7.6-.1Z"></path>
    <path class="st0" d="M59.3,49.8c-2.1-1.7-3.1-4-3.1-6.8h0c0-3.8,1.8-6.5,4.7-7.9s5.8-1.9,9.4-1.9h3.1c1.6,0,2.5-.8,2.5-2.3,0-2.2-1.8-3.9-5.1-3.9s-5.4,1.4-7,4.2l-7-4.2c2.7-5,7.5-7.5,14.4-7.5s13.7,4.4,13.7,12.7v19.5h-8.5v-3.9h-.1c-2.1,2.9-5.2,4.5-9.4,4.5s-5.5-.8-7.5-2.5h-.1ZM75.8,39.5v-.7h-5.5c-2.7,0-4.8,1.2-4.8,3.6s1.6,3.2,4,3.2c3.9,0,6.3-2.6,6.3-6.1Z"></path>
    <path class="st0" d="M87.2,20.3h10.1l7.8,18,7-18h9.5l-19.1,46.9h-9.8l7.7-18.8-13.3-28.1h.1Z"></path>
  </g>
  <g>
    <path class="st0" d="M140.2,52.5c-4.4,0-8.1-1.5-11.1-4.4-2.9-3-4.4-6.6-4.4-11s1.5-8.1,4.4-11c2.9-3,6.6-4.4,11.1-4.4s5.5.7,7.8,2.1,4,3.3,5.2,5.6l-4.3,2.5c-.7-1.6-1.9-2.8-3.4-3.8-1.6-.9-3.3-1.4-5.3-1.4-2.9,0-5.4,1-7.4,3s-3,4.5-3,7.5,1,5.4,3,7.4,4.4,3,7.4,3,3.7-.5,5.3-1.4,2.8-2.2,3.6-3.7l4.4,2.5c-1.3,2.3-3.1,4.2-5.4,5.6-2.4,1.4-5,2.1-7.8,2.1l-.1-.2Z"></path>
    <path class="st0" d="M161.4,39.4c.5,2.6,1.7,4.7,3.6,6.1,1.9,1.5,4.2,2.2,7,2.2s6.7-1.4,8.5-4.3l4.4,2.5c-2.9,4.4-7.2,6.7-13,6.7s-8.5-1.5-11.4-4.4-4.4-6.6-4.4-11.1,1.4-8.1,4.3-11.1c2.9-2.9,6.6-4.4,11.1-4.4s7.8,1.5,10.6,4.6c2.7,3,4.1,6.7,4.1,11s0,1.5-.2,2.3h-24.7l.1-.1ZM171.6,26.3c-2.7,0-5,.8-6.8,2.3-1.8,1.6-2.9,3.6-3.4,6.2h19.7c-.4-2.8-1.5-4.9-3.3-6.4s-3.8-2.2-6.2-2.2v.1Z"></path>
    <path class="st0" d="M197,27.2c1.7-3.7,4.8-5.5,9.2-5.5v5.4c-2.5-.1-4.7.6-6.5,2-1.8,1.5-2.7,3.8-2.7,7v15.6h-5.1v-29.4h5.1v4.9Z"></path>
    <path class="st0" d="M227.9,27.2h-7.8v16c0,1.5.3,2.5.9,3.1.6.6,1.4.9,2.6.9h4.4v4.6c-4.5.6-7.8.2-9.8-1.1-2.1-1.3-3.1-3.8-3.1-7.5v-16h-5.8v-4.9h5.8v-6.7l5.1-1.5v8.2h7.8v4.9h-.1Z"></path>
    <path class="st0" d="M235.4,16.9c-1,0-1.8-.3-2.5-1-.7-.7-1-1.5-1-2.4s.3-1.8,1-2.4c.7-.7,1.5-1,2.5-1s1.7.3,2.4,1,1,1.5,1,2.4-.3,1.7-1,2.4c-.7.7-1.5,1-2.4,1ZM232.8,51.7v-29.4h5.1v29.4h-5.1Z"></path>
    <path class="st0" d="M268.3,22.3v29.4h-5.1v-24.5h-10.9v24.5h-5.1v-24.5h-4.7v-4.9h4.7v-.9c0-7.8,4.3-11.7,12.9-11.7s3.6.3,6.1.8v4.7c-2.4-.3-4.4-.5-6.1-.5-2.7,0-4.6.5-5.9,1.5-1.3,1-1.9,2.7-1.9,5.2v.9s16,0,16,0Z"></path>
    <path class="st0" d="M279.4,39.4c.5,2.6,1.7,4.7,3.6,6.1,1.9,1.5,4.3,2.2,7,2.2s6.7-1.4,8.5-4.3l4.4,2.5c-2.9,4.4-7.2,6.7-13,6.7s-8.5-1.5-11.4-4.4-4.4-6.6-4.4-11.1,1.4-8.1,4.3-11.1c2.9-2.9,6.6-4.4,11.1-4.4s7.8,1.5,10.6,4.6c2.7,3,4.1,6.7,4.1,11s0,1.5-.2,2.3h-24.7l.1-.1ZM289.6,26.3c-2.7,0-5,.8-6.8,2.3-1.8,1.6-2.9,3.6-3.4,6.2h19.7c-.4-2.8-1.5-4.9-3.3-6.4s-3.8-2.2-6.2-2.2v.1Z"></path>
    <path class="st0" d="M334.2,10.5h5.1v41.2h-5.1v-5.1c-2.6,3.9-6.3,5.8-11.1,5.8s-7.6-1.5-10.5-4.5-4.4-6.7-4.4-11,1.5-8,4.4-11,6.4-4.5,10.5-4.5,8.6,1.9,11.1,5.8V10.5ZM323.8,47.5c3,0,5.5-1,7.5-3s3-4.5,3-7.5-1-5.5-3-7.5-4.5-3-7.5-3-5.4,1-7.4,3-3,4.5-3,7.5,1,5.5,3,7.5,4.5,3,7.4,3Z"></path>
  </g>
</svg>
